<svg width="216" height="44" viewBox="0 0 216 44" fill="none" xmlns="http://www.w3.org/2000/svg">
<g clip-path="url(#clip0_19_67)">
<path d="M12.0847 43.9969C11.4377 43.9575 10.9494 43.3899 10.9494 42.7405V1.51214C10.9494 1.21544 11.0431 0.920262 11.2366 0.694714C11.613 0.257242 12.2177 0.152794 12.703 0.39802L53.5525 20.9849C53.9592 21.1893 54.2162 21.6056 54.2177 22.0612C54.2192 22.5168 53.9668 22.9346 53.5631 23.1435L18.6259 41.1737C18.0318 41.4795 17.3031 41.2464 16.9962 40.6515C16.6894 40.0566 16.9237 39.327 17.5178 39.0197L49.6357 22.4442C49.9305 22.2913 49.929 21.869 49.6327 21.7191L14.1723 3.85087C13.8035 3.66468 13.3681 3.93413 13.3681 4.34738V42.7904C13.3681 43.4837 12.7861 44.0408 12.0847 43.9999V43.9969Z" fill="#7B6B38"/>
<path d="M28.2177 43.9333C27.7808 43.9333 27.359 43.6957 27.1444 43.2809C26.836 42.6875 27.0658 41.9564 27.6584 41.6476L64.6455 22.3761C64.8859 22.2505 64.8844 21.9053 64.644 21.7827L26.5911 2.28872C25.997 1.98445 25.7612 1.25483 26.065 0.658414C26.3689 0.0635122 27.0975 -0.172632 27.6931 0.131631L68.3779 20.9713C68.6984 21.1363 68.9479 21.424 69.0325 21.7751C69.1671 22.3322 68.901 22.8877 68.4157 23.1405L28.7755 43.7941C28.5971 43.8864 28.4067 43.9318 28.2177 43.9318V43.9333Z" fill="#7B6B38"/>
<g filter="url(#filter0_d_19_67)">
<path d="M3.04157 28.1769H0V17.8002H3.04157V28.1769ZM9.97279 14.8105V17.2764H0.00907029V14.8105H9.97128H9.97279Z" fill="#1F201A"/>
<path d="M17.1081 17.2203C16.3311 17.3142 15.6553 17.7244 15.0839 18.454C14.4309 19.2881 14.1043 20.2978 14.1043 21.48C14.1043 22.6622 14.4309 23.6628 15.0839 24.4969C15.6553 25.2311 16.3311 25.6458 17.1081 25.7397V28.1677C15.4603 28.1057 14.0454 27.4517 12.8632 26.2059C11.613 24.898 10.9887 23.3162 10.9887 21.4603C10.9887 19.6045 11.613 18.0196 12.8632 16.7057C14.0439 15.4659 15.4588 14.8165 17.1081 14.7529V17.2188V17.2203ZM17.5934 25.7578C18.4581 25.714 19.1973 25.2946 19.8141 24.4969C20.4671 23.6628 20.7937 22.6562 20.7937 21.48C20.7937 20.3038 20.4671 19.2881 19.8141 18.454C19.1988 17.6639 18.4581 17.2461 17.5934 17.2022V14.7454C19.2668 14.8014 20.703 15.4553 21.9033 16.7072C23.1535 18.0211 23.7778 19.606 23.7778 21.4618C23.7778 23.3177 23.1535 24.8996 21.9033 26.2074C20.703 27.4654 19.2668 28.1223 17.5934 28.1783V25.7594V25.7578Z" fill="#1F201A"/>
<path d="M34.6168 14.8105V17.2764H24.6546V14.8105H34.6168ZM31.2305 28.1481H28.189V17.7714H31.2305V28.1481Z" fill="#1F201A"/>
<path d="M41.678 17.2203C40.901 17.3142 40.2253 17.7244 39.6538 18.454C39.0008 19.2881 38.6742 20.2978 38.6742 21.48C38.6742 22.6622 39.0008 23.6628 39.6538 24.4969C40.2253 25.2311 40.901 25.6458 41.678 25.7397V28.1677C40.0303 28.1057 38.6153 27.4517 37.4331 26.2059C36.1829 24.898 35.5586 23.3162 35.5586 21.4603C35.5586 19.6045 36.1829 18.0196 37.4331 16.7057C38.6138 15.4659 40.0287 14.8165 41.678 14.7529V17.2188V17.2203ZM42.1633 25.7578C43.028 25.714 43.7672 25.2946 44.384 24.4969C45.0371 23.6628 45.3636 22.6562 45.3636 21.48C45.3636 20.3038 45.0371 19.2881 44.384 18.454C43.7687 17.6639 43.028 17.2461 42.1633 17.2022V14.7454C43.8367 14.8014 45.2729 15.4553 46.4732 16.7072C47.7234 18.0211 48.3477 19.606 48.3477 21.4618C48.3477 23.3177 47.7234 24.8996 46.4732 26.2074C45.2729 27.4654 43.8367 28.1223 42.1633 28.1783V25.7594V25.7578Z" fill="#1F201A"/>
<path d="M52.2933 28.1768H49.2517V14.7544H52.2933V28.1768ZM55.6055 14.7544H55.6432C57.7944 14.7544 59.1535 15.5203 59.7188 17.0523C59.8488 17.358 59.9154 17.7092 59.9154 18.1073V18.3405C59.9214 18.6826 59.8413 18.9732 59.6735 19.2093C59.4739 19.7952 59.1444 20.2705 58.6848 20.6383L58.2555 20.8805L58.0318 20.9547C58.2736 21.0849 58.4732 21.1878 58.6289 21.2635C59.5737 21.8296 60.1119 22.6743 60.2419 23.7945C60.2736 23.9186 60.2887 24.0654 60.2887 24.2335C60.2389 25.0312 60.1618 25.4914 60.0559 25.6155C59.994 25.9516 59.7733 26.3497 59.3938 26.8114C58.9463 27.4471 58.1376 27.8952 56.969 28.1571L56.1663 28.204H56.1194C56.0575 28.204 55.8866 28.201 55.607 28.1949H52.8088V25.7578H55.607C56.6274 25.4959 57.1459 25.004 57.164 24.2819V23.8898C57.2139 23.4039 56.9932 23.0058 56.5019 22.694C56.4021 22.5381 56.1043 22.4382 55.607 22.3958L52.8179 22.3867L52.8269 19.8648H55.607C55.7188 19.8406 55.8745 19.827 56.0741 19.827C56.6395 19.5848 56.9237 19.1397 56.9237 18.4918L56.8768 18.1558L56.7831 17.9227H56.7362C56.4868 17.5609 56.1119 17.3565 55.607 17.3066L52.7906 17.3157L52.7816 14.7468L55.6085 14.7559L55.6055 14.7544Z" fill="#1F201A"/>
<path d="M67.3303 17.2203C66.5533 17.3142 65.8775 17.7244 65.3061 18.454C64.6531 19.2881 64.3265 20.2978 64.3265 21.48C64.3265 22.6622 64.6531 23.6628 65.3061 24.4969C65.8775 25.2311 66.5533 25.6458 67.3303 25.7397V28.1677C65.6825 28.1057 64.2676 27.4517 63.0854 26.2059C61.8352 24.898 61.2109 23.3162 61.2109 21.4603C61.2109 19.6045 61.8352 18.0196 63.0854 16.7057C64.2661 15.4659 65.681 14.8165 67.3303 14.7529V17.2188V17.2203ZM67.8156 25.7578C68.6803 25.714 69.4195 25.2946 70.0363 24.4969C70.6893 23.6628 71.0159 22.6562 71.0159 21.48C71.0159 20.3038 70.6893 19.2881 70.0363 18.454C69.421 17.6639 68.6803 17.2461 67.8156 17.2022V14.7454C69.489 14.8014 70.9252 15.4553 72.1255 16.7072C73.3756 18.0211 74 19.606 74 21.4618C74 23.3177 73.3756 24.8996 72.1255 26.2074C70.9252 27.4654 69.489 28.1223 67.8156 28.1783V25.7594V25.7578Z" fill="#1F201A"/>
</g>
</g>
<path d="M90.8789 10.5449H93.8965C95.4844 10.5449 96.6035 11.6582 96.6035 13.2578C96.6035 14.8633 95.4727 15.9824 93.8848 15.9824H91.9336V19H90.8789V10.5449ZM91.9336 11.4824V15.0449H93.6211C94.8281 15.0449 95.5195 14.3828 95.5195 13.2578C95.5195 12.1387 94.834 11.4824 93.6211 11.4824H91.9336ZM103.16 18.0508V19H97.9219V10.5449H103.16V11.4941H98.9766V14.207H102.943V15.1445H98.9766V18.0508H103.16ZM113.004 19H112.02V12.4844H111.979L109.283 18.9414H108.393L105.697 12.4844H105.656V19H104.672V10.5449H105.896L108.814 17.5996H108.861L111.779 10.5449H113.004V19ZM118.33 10.4043C120.727 10.4043 122.227 12.0918 122.227 14.7754C122.227 17.459 120.727 19.1406 118.33 19.1406C115.934 19.1406 114.434 17.459 114.434 14.7754C114.434 12.0918 115.934 10.4043 118.33 10.4043ZM118.33 11.377C116.602 11.377 115.518 12.6895 115.518 14.7754C115.518 16.8555 116.602 18.168 118.33 18.168C120.059 18.168 121.143 16.8555 121.143 14.7754C121.143 12.6895 120.059 11.377 118.33 11.377ZM130.406 19H129.352V15.1504H124.711V19H123.656V10.5449H124.711V14.2012H129.352V10.5449H130.406V19ZM135.357 19H134.303V11.4941H131.637V10.5449H138.023V11.4941H135.357V19ZM139.254 19V10.5449H140.309V13.6797H142.377C143.971 13.6797 145.096 14.7812 145.096 16.3457C145.096 17.9043 143.982 19 142.389 19H139.254ZM140.309 18.0508H142.113C143.326 18.0508 144.012 17.4355 144.012 16.3457C144.012 15.25 143.32 14.6289 142.113 14.6289H140.309V18.0508ZM147.281 19H146.227V10.5449H147.281V19ZM158.127 19H157.084V11.5059H152.561V19H151.5V10.5449H158.127V19ZM163.459 10.4043C165.855 10.4043 167.355 12.0918 167.355 14.7754C167.355 17.459 165.855 19.1406 163.459 19.1406C161.062 19.1406 159.562 17.459 159.562 14.7754C159.562 12.0918 161.062 10.4043 163.459 10.4043ZM163.459 11.377C161.73 11.377 160.646 12.6895 160.646 14.7754C160.646 16.8555 161.73 18.168 163.459 18.168C165.188 18.168 166.271 16.8555 166.271 14.7754C166.271 12.6895 165.188 11.377 163.459 11.377ZM170.197 15.8887C170.139 16.8555 170.021 17.5 169.605 18.0039V18.0508H173.707V11.4941H170.473L170.197 15.8887ZM168.65 19V20.6699H167.672V18.0508H168.299C168.914 17.7227 169.143 16.9727 169.207 15.8652L169.529 10.5449H174.762V18.0508H175.816V20.6699H174.838V19H168.65ZM181.723 14.5879L185.959 19H184.512L180.609 14.8926H180.562V19H179.508V10.5449H180.562V14.4414H180.609L184.242 10.5449H185.566L181.723 14.5879ZM193.248 19H192.193V11.4941H189.105L188.836 15.8359C188.695 18.0859 188.045 19.0527 186.68 19.0527C186.527 19.0527 186.375 19.0293 186.27 18.9941V18.0508C186.334 18.0684 186.492 18.0859 186.586 18.0859C187.389 18.0859 187.746 17.4297 187.84 15.7949L188.145 10.5449H193.248V19ZM201.439 19.1992C199.16 19.1992 197.754 17.6348 197.625 15.1504H196.066V19H195.012V10.5449H196.066V14.2012H197.637C197.83 11.8164 199.254 10.3457 201.439 10.3457C203.807 10.3457 205.248 12.0566 205.248 14.7695C205.248 17.4707 203.818 19.1992 201.439 19.1992ZM201.439 11.3184C199.752 11.3184 198.697 12.6543 198.697 14.7695C198.697 16.8672 199.717 18.2266 201.439 18.2266C203.139 18.2266 204.164 16.8672 204.164 14.7695C204.164 12.6543 203.133 11.3184 201.439 11.3184ZM212.936 19H211.881V15.2031H211.787C211.312 15.5781 210.604 15.8594 209.766 15.8594C207.633 15.8594 206.537 14.4824 206.537 12.7539V10.5449H207.592V12.7598C207.592 14.0664 208.359 14.8867 209.766 14.8867C210.68 14.8867 211.43 14.541 211.881 14.0898V10.5449H212.936V19ZM93.0938 28.5879L97.3301 33H95.8828L91.9805 28.8926H91.9336V33H90.8789V24.5449H91.9336V28.4414H91.9805L95.6133 24.5449H96.9375L93.0938 28.5879ZM101.537 33H98.3438V24.5449H101.549C102.996 24.5449 103.975 25.3887 103.975 26.6543C103.975 27.5332 103.33 28.3535 102.516 28.5V28.5469C103.664 28.6934 104.402 29.502 104.402 30.627C104.402 32.1152 103.336 33 101.537 33ZM99.3984 25.4766V28.1895H100.98C102.229 28.1895 102.908 27.6914 102.908 26.7773C102.908 25.9395 102.334 25.4766 101.309 25.4766H99.3984ZM99.3984 32.0684H101.379C102.65 32.0684 103.318 31.5527 103.318 30.5742C103.318 29.5957 102.627 29.0977 101.279 29.0977H99.3984V32.0684ZM111.211 33L110.361 30.5801H106.998L106.148 33H105.041L108.158 24.5449H109.201L112.318 33H111.211ZM108.662 25.8281L107.309 29.6836H110.051L108.697 25.8281H108.662ZM113.402 24.5449H116.42C118.008 24.5449 119.127 25.6582 119.127 27.2578C119.127 28.8633 117.996 29.9824 116.408 29.9824H114.457V33H113.402V24.5449ZM114.457 25.4824V29.0449H116.145C117.352 29.0449 118.043 28.3828 118.043 27.2578C118.043 26.1387 117.357 25.4824 116.145 25.4824H114.457ZM123.463 33H122.408V25.4941H119.742V24.5449H126.129V25.4941H123.463V33ZM133.066 33V26.2734H132.973L128.402 33H127.359V24.5449H128.402V31.2949H128.496L133.066 24.5449H134.109V33H133.066ZM135.867 24.5449H138.885C140.473 24.5449 141.592 25.6582 141.592 27.2578C141.592 28.8633 140.461 29.9824 138.873 29.9824H136.922V33H135.867V24.5449ZM136.922 25.4824V29.0449H138.609C139.816 29.0449 140.508 28.3828 140.508 27.2578C140.508 26.1387 139.822 25.4824 138.609 25.4824H136.922ZM151.078 33V26.2734H150.984L146.414 33H145.371V24.5449H146.414V31.2949H146.508L151.078 24.5449H152.121V33H151.078ZM158.162 29.8887C158.104 30.8555 157.986 31.5 157.57 32.0039V32.0508H161.672V25.4941H158.438L158.162 29.8887ZM156.615 33V34.6699H155.637V32.0508H156.264C156.879 31.7227 157.107 30.9727 157.172 29.8652L157.494 24.5449H162.727V32.0508H163.781V34.6699H162.803V33H156.615ZM168.58 24.4043C170.977 24.4043 172.477 26.0918 172.477 28.7754C172.477 31.459 170.977 33.1406 168.58 33.1406C166.184 33.1406 164.684 31.459 164.684 28.7754C164.684 26.0918 166.184 24.4043 168.58 24.4043ZM168.58 25.377C166.852 25.377 165.768 26.6895 165.768 28.7754C165.768 30.8555 166.852 32.168 168.58 32.168C170.309 32.168 171.393 30.8555 171.393 28.7754C171.393 26.6895 170.309 25.377 168.58 25.377ZM182.238 33H181.254V26.4844H181.213L178.518 32.9414H177.627L174.932 26.4844H174.891V33H173.906V24.5449H175.131L178.049 31.5996H178.096L181.014 24.5449H182.238V33ZM187.564 24.4043C189.961 24.4043 191.461 26.0918 191.461 28.7754C191.461 31.459 189.961 33.1406 187.564 33.1406C185.168 33.1406 183.668 31.459 183.668 28.7754C183.668 26.0918 185.168 24.4043 187.564 24.4043ZM187.564 25.377C185.836 25.377 184.752 26.6895 184.752 28.7754C184.752 30.8555 185.836 32.168 187.564 32.168C189.293 32.168 190.377 30.8555 190.377 28.7754C190.377 26.6895 189.293 25.377 187.564 25.377ZM196.084 33H192.891V24.5449H196.096C197.543 24.5449 198.521 25.3887 198.521 26.6543C198.521 27.5332 197.877 28.3535 197.062 28.5V28.5469C198.211 28.6934 198.949 29.502 198.949 30.627C198.949 32.1152 197.883 33 196.084 33ZM193.945 25.4766V28.1895H195.527C196.775 28.1895 197.455 27.6914 197.455 26.7773C197.455 25.9395 196.881 25.4766 195.855 25.4766H193.945ZM193.945 32.0684H195.926C197.197 32.0684 197.865 31.5527 197.865 30.5742C197.865 29.5957 197.174 29.0977 195.826 29.0977H193.945V32.0684Z" fill="#323230"/>
<defs>
<filter id="filter0_d_19_67" x="-10" y="8.74536" width="94" height="33.4587" filterUnits="userSpaceOnUse" color-interpolation-filters="sRGB">
<feFlood flood-opacity="0" result="BackgroundImageFix"/>
<feColorMatrix in="SourceAlpha" type="matrix" values="0 0 0 0 0 0 0 0 0 0 0 0 0 0 0 0 0 0 127 0" result="hardAlpha"/>
<feOffset dy="4"/>
<feGaussianBlur stdDeviation="5"/>
<feComposite in2="hardAlpha" operator="out"/>
<feColorMatrix type="matrix" values="0 0 0 0 1 0 0 0 0 1 0 0 0 0 1 0 0 0 1 0"/>
<feBlend mode="normal" in2="BackgroundImageFix" result="effect1_dropShadow_19_67"/>
<feBlend mode="normal" in="SourceGraphic" in2="effect1_dropShadow_19_67" result="shape"/>
</filter>
<clipPath id="clip0_19_67">
<rect width="74" height="44" fill="white"/>
</clipPath>
</defs>
</svg>
