<svg width="371" height="200" viewBox="0 0 371 200" fill="none" xmlns="http://www.w3.org/2000/svg">
<g filter="url(#filter0_d_59_136)">
<path d="M246.891 69.7782C279.7 88.7188 276.66 128.601 244.775 144.754C211.966 163.695 158.772 163.695 125.963 144.754C92.4625 126.455 90.9972 89.1482 123.806 70.2076C156.615 51.2671 214.082 50.8376 246.891 69.7782Z" fill="#7B6B38"/>
</g>
<circle cx="68.5944" cy="68.5944" r="66.1621" transform="matrix(0.866044 -0.499967 0.866044 0.499967 66.5582 102.444)" fill="#7B6B38" stroke="url(#paint0_linear_59_136)" stroke-width="4.86455"/>
<g filter="url(#filter1_f_59_136)">
<path d="M215.197 75.9541L235.9 64.2598C256.507 67.9261 270.509 87.7012 274.933 97.1304C272.51 98.1313 266.684 100.923 262.765 104.084C258.846 107.244 251.229 106.033 247.91 105.032C240.588 100.765 224.521 91.5677 218.832 88.9128C213.143 86.2578 214.038 79.1675 215.197 75.9541Z" fill="#7B6B38"/>
</g>
<g filter="url(#filter2_f_59_136)">
<path d="M170.001 45.6119L190.703 33.9175C211.31 37.5838 225.312 57.3589 229.737 66.7882C227.314 67.789 221.488 70.5809 217.568 73.7416C213.649 76.9022 206.032 75.6906 202.713 74.6898C195.391 70.4229 179.325 61.2254 173.635 58.5705C167.946 55.9155 168.842 48.8252 170.001 45.6119Z" fill="#7B6B38"/>
</g>
<g filter="url(#filter3_d_59_136)">
<path d="M117.996 81.1547C113.259 78.505 113.188 70.9219 117.227 68.7958L145.912 55.1177C150.658 52.3781 158.352 52.3781 163.097 55.1177L191.569 68.6541C195.963 70.8511 195.759 78.4151 191.013 81.1547L163.097 97.2706C158.352 100.01 150.658 100.01 145.912 97.2706L117.996 81.1547Z" fill="white" fill-opacity="0.5"/>
<rect x="2.0861" width="49.6684" height="49.6684" rx="15.7956" transform="matrix(0.866043 -0.49997 0.866043 0.49997 109.684 73.0503)" fill="white" fill-opacity="0.5" stroke="url(#paint1_linear_59_136)" stroke-width="2.40878"/>
</g>
<path d="M167.857 51.0854C163.119 48.4356 163.048 40.8526 167.088 38.7265L195.772 25.0484C200.518 22.3087 208.212 22.3087 212.958 25.0484L241.43 38.5848C245.824 40.7817 245.619 48.3458 240.874 51.0854L212.958 67.2013C208.212 69.9409 200.518 69.9409 195.772 67.2013L167.857 51.0854Z" fill="white" fill-opacity="0.5"/>
<rect x="2.0861" width="49.6684" height="49.6684" rx="15.7956" transform="matrix(0.866043 -0.49997 0.866043 0.49997 159.543 42.9815)" fill="white" fill-opacity="0.5" stroke="url(#paint2_linear_59_136)" stroke-width="2.40878"/>
<g filter="url(#filter8_d_59_136)">
<path d="M171.283 111.224C166.546 108.574 166.475 100.991 170.514 98.8647L199.199 85.1866C203.945 82.4469 211.639 82.4469 216.385 85.1866L244.857 98.7229C249.25 100.92 249.046 108.484 244.3 111.224L216.385 127.339C211.639 130.079 203.945 130.079 199.199 127.339L171.283 111.224Z" fill="white" fill-opacity="0.5"/>
<rect x="2.0861" width="49.6684" height="49.6684" rx="15.7956" transform="matrix(0.866043 -0.49997 0.866043 0.49997 162.97 103.119)" fill="white" fill-opacity="0.5" stroke="url(#paint3_linear_59_136)" stroke-width="2.40878"/>
</g>
<path d="M221.143 81.1547C216.406 78.505 216.335 70.9219 220.374 68.7958L249.059 55.1177C253.805 52.3781 261.499 52.3781 266.244 55.1177L294.717 68.6541C299.11 70.8511 298.906 78.4151 294.16 81.1547L266.244 97.2706C261.499 100.01 253.805 100.01 249.059 97.2706L221.143 81.1547Z" fill="white" fill-opacity="0.5"/>
<rect x="2.0861" width="49.6684" height="49.6684" rx="15.7956" transform="matrix(0.866043 -0.49997 0.866043 0.49997 212.83 73.0503)" fill="white" fill-opacity="0.5" stroke="url(#paint4_linear_59_136)" stroke-width="2.40878"/>
<g filter="url(#filter13_i_59_136)">
<path d="M194.897 46.6426L213.86 35.6955" stroke="#DFD9B9" stroke-width="12" stroke-linecap="round" stroke-linejoin="round"/>
<path d="M213.91 46.5848L194.973 35.6528" stroke="#DFD9B9" stroke-width="12" stroke-linecap="round" stroke-linejoin="round"/>
</g>
<g filter="url(#filter14_i_59_136)">
<path d="M240.226 72.0161L259.188 61.0691" stroke="#DFD9B9" stroke-width="12" stroke-linecap="round" stroke-linejoin="round"/>
<path d="M256.009 81.1279L274.972 70.1809" stroke="#DFD9B9" stroke-width="12" stroke-linecap="round" stroke-linejoin="round"/>
</g>
<g filter="url(#filter15_i_59_136)">
<path d="M209.586 112.969L209.612 91.0896" stroke="#DFD9B9" stroke-width="12" stroke-linecap="round" stroke-linejoin="round"/>
<path d="M228.549 102.022L190.65 102.037" stroke="#DFD9B9" stroke-width="12" stroke-linecap="round" stroke-linejoin="round"/>
</g>
<g filter="url(#filter16_i_59_136)">
<path d="M144.767 77.1099L163.729 66.1628" stroke="#DFD9B9" stroke-width="12" stroke-linecap="round" stroke-linejoin="round"/>
</g>
<defs>
<filter id="filter0_d_59_136" x="0" y="15.7856" width="370.132" height="303.174" filterUnits="userSpaceOnUse" color-interpolation-filters="sRGB">
<feFlood flood-opacity="0" result="BackgroundImageFix"/>
<feColorMatrix in="SourceAlpha" type="matrix" values="0 0 0 0 0 0 0 0 0 0 0 0 0 0 0 0 0 0 127 0" result="hardAlpha"/>
<feOffset dy="60"/>
<feGaussianBlur stdDeviation="50"/>
<feComposite in2="hardAlpha" operator="out"/>
<feColorMatrix type="matrix" values="0 0 0 0 0.482353 0 0 0 0 0.419608 0 0 0 0 0.219608 0 0 0 0.5 0"/>
<feBlend mode="normal" in2="BackgroundImageFix" result="effect1_dropShadow_59_136"/>
<feBlend mode="normal" in="SourceGraphic" in2="effect1_dropShadow_59_136" result="shape"/>
</filter>
<filter id="filter1_f_59_136" x="171.366" y="21.2891" width="146.538" height="127.802" filterUnits="userSpaceOnUse" color-interpolation-filters="sRGB">
<feFlood flood-opacity="0" result="BackgroundImageFix"/>
<feBlend mode="normal" in="SourceGraphic" in2="BackgroundImageFix" result="shape"/>
<feGaussianBlur stdDeviation="21.4853" result="effect1_foregroundBlur_59_136"/>
</filter>
<filter id="filter2_f_59_136" x="126.169" y="-9.05321" width="146.538" height="127.802" filterUnits="userSpaceOnUse" color-interpolation-filters="sRGB">
<feFlood flood-opacity="0" result="BackgroundImageFix"/>
<feBlend mode="normal" in="SourceGraphic" in2="BackgroundImageFix" result="shape"/>
<feGaussianBlur stdDeviation="21.4853" result="effect1_foregroundBlur_59_136"/>
</filter>
<filter id="filter3_d_59_136" x="38.8993" y="44.0984" width="231.239" height="199.203" filterUnits="userSpaceOnUse" color-interpolation-filters="sRGB">
<feFlood flood-opacity="0" result="BackgroundImageFix"/>
<feColorMatrix in="SourceAlpha" type="matrix" values="0 0 0 0 0 0 0 0 0 0 0 0 0 0 0 0 0 0 127 0" result="hardAlpha"/>
<feOffset dy="68.5628"/>
<feGaussianBlur stdDeviation="37.7068"/>
<feComposite in2="hardAlpha" operator="out"/>
<feColorMatrix type="matrix" values="0 0 0 0 0.87451 0 0 0 0 0.85098 0 0 0 0 0.72549 0 0 0 1 0"/>
<feBlend mode="normal" in2="BackgroundImageFix" result="effect1_dropShadow_59_136"/>
<feBlend mode="normal" in="SourceGraphic" in2="effect1_dropShadow_59_136" result="shape"/>
</filter>
<filter id="filter8_d_59_136" x="92.1864" y="74.1673" width="231.239" height="199.203" filterUnits="userSpaceOnUse" color-interpolation-filters="sRGB">
<feFlood flood-opacity="0" result="BackgroundImageFix"/>
<feColorMatrix in="SourceAlpha" type="matrix" values="0 0 0 0 0 0 0 0 0 0 0 0 0 0 0 0 0 0 127 0" result="hardAlpha"/>
<feOffset dy="68.5628"/>
<feGaussianBlur stdDeviation="37.7068"/>
<feComposite in2="hardAlpha" operator="out"/>
<feColorMatrix type="matrix" values="0 0 0 0 0.87451 0 0 0 0 0.85098 0 0 0 0 0.72549 0 0 0 1 0"/>
<feBlend mode="normal" in2="BackgroundImageFix" result="effect1_dropShadow_59_136"/>
<feBlend mode="normal" in="SourceGraphic" in2="effect1_dropShadow_59_136" result="shape"/>
</filter>
<filter id="filter13_i_59_136" x="187.549" y="31.4106" width="33.7096" height="23.4741" filterUnits="userSpaceOnUse" color-interpolation-filters="sRGB">
<feFlood flood-opacity="0" result="BackgroundImageFix"/>
<feBlend mode="normal" in="SourceGraphic" in2="BackgroundImageFix" result="shape"/>
<feColorMatrix in="SourceAlpha" type="matrix" values="0 0 0 0 0 0 0 0 0 0 0 0 0 0 0 0 0 0 127 0" result="hardAlpha"/>
<feOffset dy="6"/>
<feGaussianBlur stdDeviation="2"/>
<feComposite in2="hardAlpha" operator="arithmetic" k2="-1" k3="1"/>
<feColorMatrix type="matrix" values="0 0 0 0 1 0 0 0 0 1 0 0 0 0 1 0 0 0 1 0"/>
<feBlend mode="normal" in2="shape" result="effect1_innerShadow_59_136"/>
</filter>
<filter id="filter14_i_59_136" x="232.877" y="56.8267" width="49.4434" height="32.5435" filterUnits="userSpaceOnUse" color-interpolation-filters="sRGB">
<feFlood flood-opacity="0" result="BackgroundImageFix"/>
<feBlend mode="normal" in="SourceGraphic" in2="BackgroundImageFix" result="shape"/>
<feColorMatrix in="SourceAlpha" type="matrix" values="0 0 0 0 0 0 0 0 0 0 0 0 0 0 0 0 0 0 127 0" result="hardAlpha"/>
<feOffset dy="6"/>
<feGaussianBlur stdDeviation="2"/>
<feComposite in2="hardAlpha" operator="arithmetic" k2="-1" k3="1"/>
<feColorMatrix type="matrix" values="0 0 0 0 1 0 0 0 0 1 0 0 0 0 1 0 0 0 1 0"/>
<feBlend mode="normal" in2="shape" result="effect1_innerShadow_59_136"/>
</filter>
<filter id="filter15_i_59_136" x="183.301" y="86.8472" width="52.5962" height="34.3638" filterUnits="userSpaceOnUse" color-interpolation-filters="sRGB">
<feFlood flood-opacity="0" result="BackgroundImageFix"/>
<feBlend mode="normal" in="SourceGraphic" in2="BackgroundImageFix" result="shape"/>
<feColorMatrix in="SourceAlpha" type="matrix" values="0 0 0 0 0 0 0 0 0 0 0 0 0 0 0 0 0 0 127 0" result="hardAlpha"/>
<feOffset dy="6"/>
<feGaussianBlur stdDeviation="2"/>
<feComposite in2="hardAlpha" operator="arithmetic" k2="-1" k3="1"/>
<feColorMatrix type="matrix" values="0 0 0 0 1 0 0 0 0 1 0 0 0 0 1 0 0 0 1 0"/>
<feBlend mode="normal" in2="shape" result="effect1_innerShadow_59_136"/>
</filter>
<filter id="filter16_i_59_136" x="137.418" y="61.9204" width="33.6598" height="23.4316" filterUnits="userSpaceOnUse" color-interpolation-filters="sRGB">
<feFlood flood-opacity="0" result="BackgroundImageFix"/>
<feBlend mode="normal" in="SourceGraphic" in2="BackgroundImageFix" result="shape"/>
<feColorMatrix in="SourceAlpha" type="matrix" values="0 0 0 0 0 0 0 0 0 0 0 0 0 0 0 0 0 0 127 0" result="hardAlpha"/>
<feOffset dy="6"/>
<feGaussianBlur stdDeviation="2"/>
<feComposite in2="hardAlpha" operator="arithmetic" k2="-1" k3="1"/>
<feColorMatrix type="matrix" values="0 0 0 0 1 0 0 0 0 1 0 0 0 0 1 0 0 0 1 0"/>
<feBlend mode="normal" in2="shape" result="effect1_innerShadow_59_136"/>
</filter>
<linearGradient id="paint0_linear_59_136" x1="11.887" y1="55.8024" x2="119.465" y2="159.227" gradientUnits="userSpaceOnUse">
<stop stop-color="white" stop-opacity="0.43"/>
<stop offset="0.846595" stop-color="white" stop-opacity="0.44"/>
<stop offset="1" stop-color="white" stop-opacity="0"/>
</linearGradient>
<linearGradient id="paint1_linear_59_136" x1="6.28545" y1="22.8141" x2="30.0593" y2="45.3112" gradientUnits="userSpaceOnUse">
<stop stop-color="white" stop-opacity="0.09"/>
<stop offset="0.846595" stop-color="white" stop-opacity="0.79"/>
<stop offset="1" stop-color="white" stop-opacity="0.17"/>
</linearGradient>
<linearGradient id="paint2_linear_59_136" x1="6.28545" y1="22.8141" x2="30.0593" y2="45.3112" gradientUnits="userSpaceOnUse">
<stop stop-color="white" stop-opacity="0.09"/>
<stop offset="0.846595" stop-color="white" stop-opacity="0.79"/>
<stop offset="1" stop-color="white" stop-opacity="0.17"/>
</linearGradient>
<linearGradient id="paint3_linear_59_136" x1="6.28545" y1="22.8141" x2="30.0593" y2="45.3112" gradientUnits="userSpaceOnUse">
<stop stop-color="white" stop-opacity="0.09"/>
<stop offset="0.846595" stop-color="white" stop-opacity="0.79"/>
<stop offset="1" stop-color="white" stop-opacity="0.17"/>
</linearGradient>
<linearGradient id="paint4_linear_59_136" x1="6.28545" y1="22.8141" x2="30.0593" y2="45.3112" gradientUnits="userSpaceOnUse">
<stop stop-color="white" stop-opacity="0.09"/>
<stop offset="0.846595" stop-color="white" stop-opacity="0.79"/>
<stop offset="1" stop-color="white" stop-opacity="0.17"/>
</linearGradient>
</defs>
</svg>
