<svg width="20" height="20" viewBox="0 0 20 20" fill="none" xmlns="http://www.w3.org/2000/svg">
<g clip-path="url(#clip0_59_192)">
<path d="M8.75 17.5C7.6354 16.5058 6.84593 15.1991 6.48438 13.75" stroke="#7B6B38" stroke-width="1.5" stroke-linecap="round" stroke-linejoin="round"/>
<path d="M15 11.8749C15 14.3491 16.0398 16.4842 18.125 17.4999H4.76563C3.31036 15.9891 2.49813 13.9725 2.5 11.8749C2.5 9.67096 3.37735 7.89909 4.80235 6.43424C4.88878 6.34659 4.99916 6.28641 5.11966 6.26125C5.24017 6.23609 5.36541 6.24708 5.47969 6.29284L7.4625 7.09596C7.61543 7.15701 7.77891 7.18723 7.94355 7.18491C8.1082 7.18259 8.27076 7.14776 8.4219 7.08242C8.57305 7.01709 8.70979 6.92253 8.82428 6.80419C8.93878 6.68585 9.02876 6.54606 9.08907 6.39284L10.7297 2.24362C11.0539 1.46237 11.9383 1.04674 12.732 1.34284C12.9289 1.41601 13.109 1.52812 13.2616 1.67248C13.4141 1.81683 13.536 1.99046 13.62 2.18299C13.7039 2.37551 13.7482 2.58299 13.7501 2.79301C13.752 3.00303 13.7116 3.21129 13.6313 3.40534L11.9633 7.55377C11.8412 7.8614 11.846 8.2049 11.9768 8.50894C12.1076 8.81299 12.3536 9.05275 12.6609 9.17565L14.6094 9.9444C14.725 9.99115 14.8239 10.0714 14.8935 10.1748C14.9631 10.2783 15.0002 10.4002 15 10.5249V11.8749Z" stroke="#7B6B38" stroke-width="1.5" stroke-linecap="round" stroke-linejoin="round"/>
<path d="M3.43201 8.24756L15.0625 12.8999" stroke="#7B6B38" stroke-width="1.5" stroke-linecap="round" stroke-linejoin="round"/>
</g>
<defs>
<clipPath id="clip0_59_192">
<rect width="20" height="20" fill="white"/>
</clipPath>
</defs>
</svg>
