<svg width="58" height="60" viewBox="0 0 58 60" fill="none" xmlns="http://www.w3.org/2000/svg">
<path d="M21.75 24.3946H18.1515C19.8347 19.4215 21.272 17.0399 26.0547 15.0067C26.8529 14.6672 27.3044 13.8006 27.1344 12.9356C26.9646 12.0723 26.2211 11.4512 25.3572 11.4512H25.3536C15.3759 11.4692 9.64466 15.5501 5.58069 25.525C4.28348 28.658 3.625 32.0111 3.625 35.489C3.625 40.8375 5.21094 43.7502 7.62879 47.5837C7.96162 48.1127 8.53686 48.4324 9.15277 48.4324H21.75C24.7485 48.4324 27.1875 45.9441 27.1875 42.8852V29.9418C27.1875 26.8829 24.7485 24.3946 21.75 24.3946ZM48.9375 24.3946H45.339C47.0222 19.4215 48.4595 17.0399 53.2422 15.0067C54.0404 14.6672 54.4919 13.8006 54.3219 12.9356C54.1521 12.0723 53.4086 11.4512 52.5447 11.4512H52.5411C42.5634 11.4692 36.8322 15.5501 32.7682 25.525C31.4709 28.658 30.8125 32.0111 30.8125 35.489C30.8125 40.8375 32.3984 43.7502 34.8163 47.5837C35.1491 48.1127 35.7244 48.4324 36.3403 48.4324H48.9375C51.936 48.4324 54.375 45.9441 54.375 42.8852V29.9418C54.375 26.8829 51.936 24.3946 48.9375 24.3946Z" fill="#EDF0F7" fill-opacity="0.5"/>
</svg>
