<svg width="20" height="508" viewBox="0 0 20 508" fill="none" xmlns="http://www.w3.org/2000/svg">
<rect x="6.5" y="0.5" width="7" height="7" rx="3.5" stroke="#7B6B38"/>
<rect width="1" height="66" transform="translate(9.5 8)" fill="#7B6B38"/>
<rect x="6.5" y="74.5" width="7" height="7" rx="3.5" stroke="#7B6B38"/>
<rect width="1" height="63" transform="translate(9.5 82)" fill="#7B6B38"/>
<rect x="6.5" y="145.5" width="7" height="7" rx="3.5" stroke="#7B6B38"/>
<rect width="1" height="63" transform="translate(9.5 153)" fill="#7B6B38"/>
<rect x="6.5" y="216.5" width="7" height="7" rx="3.5" stroke="#7B6B38"/>
<rect width="1" height="63" transform="translate(9.5 224)" fill="#7B6B38"/>
<rect x="6.5" y="287.5" width="7" height="7" rx="3.5" stroke="#7B6B38"/>
<rect width="1" height="63" transform="translate(9.5 295)" fill="#7B6B38"/>
<rect x="6.5" y="358.5" width="7" height="7" rx="3.5" stroke="#7B6B38"/>
<rect width="1" height="63" transform="translate(9.5 366)" fill="#7B6B38"/>
<rect x="6.5" y="429.5" width="7" height="7" rx="3.5" stroke="#7B6B38"/>
<rect width="1" height="63" transform="translate(9.5 437)" fill="#7B6B38"/>
<rect x="6.5" y="500.5" width="7" height="7" rx="3.5" stroke="#7B6B38"/>
</svg>
