<svg width="603" height="200" viewBox="0 0 603 200" fill="none" xmlns="http://www.w3.org/2000/svg">
    <path d="M603 66.9723C603 74.3984 600.05 81.5203 594.799 86.7713L489.771 191.799C484.52 197.05 477.398 200 469.972 200H28C12.536 200 0 187.464 0 172V28C0 12.536 12.536 0 28 0H575C590.464 0 603 12.536 603 28V66.9723Z" fill="black" fill-opacity="0.4"/>
    <path d="M603 66.9723C603 74.3984 600.05 81.5203 594.799 86.7713L489.771 191.799C484.52 197.05 477.398 200 469.972 200H28C12.536 200 0 187.464 0 172V28C0 12.536 12.536 0 28 0H575C590.464 0 603 12.536 603 28V66.9723Z" fill="#EDF0F7"/>
</svg>