<svg width="20" height="20" viewBox="0 0 20 20" fill="none" xmlns="http://www.w3.org/2000/svg">
<g clip-path="url(#clip0_20_211)">
<path d="M6.25 10.5366L13.3016 16.7186C13.3828 16.7903 13.4812 16.8396 13.5873 16.8618C13.6933 16.8839 13.8033 16.8781 13.9064 16.845C14.0095 16.8118 14.1023 16.7524 14.1755 16.6726C14.2487 16.5928 14.3 16.4953 14.3242 16.3897L17.5 2.59521C17.5031 2.58138 17.5024 2.56696 17.4979 2.55351C17.4934 2.54006 17.4854 2.52807 17.4746 2.51884C17.4639 2.50961 17.4508 2.50348 17.4368 2.5011C17.4229 2.49873 17.4085 2.5002 17.3953 2.50537L1.5625 8.70146C1.46421 8.73929 1.38084 8.80798 1.32491 8.89722C1.26898 8.98646 1.24351 9.09143 1.25231 9.19638C1.26112 9.30133 1.30373 9.40059 1.37374 9.47927C1.44376 9.55794 1.53741 9.61178 1.64062 9.63271L6.25 10.5366Z" stroke="#1F201A" stroke-linecap="round" stroke-linejoin="round"/>
<path d="M6.25 10.5368L17.4539 2.50708" stroke="#1F201A" stroke-linecap="round" stroke-linejoin="round"/>
<path d="M9.71641 13.5765L7.325 16.0577C7.23859 16.1474 7.12737 16.2092 7.00561 16.2352C6.88384 16.2612 6.75708 16.2503 6.64157 16.2038C6.52607 16.1573 6.42709 16.0773 6.35732 15.9742C6.28755 15.871 6.25018 15.7494 6.25 15.6249V10.5366" stroke="#1F201A" stroke-linecap="round" stroke-linejoin="round"/>
</g>
<defs>
<clipPath id="clip0_20_211">
<rect width="20" height="20" fill="white"/>
</clipPath>
</defs>
</svg>
