<svg width="20" height="20" viewBox="0 0 20 20" fill="none" xmlns="http://www.w3.org/2000/svg">
<g clip-path="url(#clip0_20_207)">
<path d="M5.625 8.125C5.625 7.46196 5.88839 6.82607 6.35723 6.35723C6.82607 5.88839 7.46196 5.625 8.125 5.625L9.375 8.125L8.4125 9.56797C8.7943 10.4803 9.51973 11.2057 10.432 11.5875L11.875 10.625L14.375 11.875C14.375 12.538 14.1116 13.1739 13.6428 13.6428C13.1739 14.1116 12.538 14.375 11.875 14.375C10.2174 14.375 8.62769 13.7165 7.45558 12.5444C6.28348 11.3723 5.625 9.7826 5.625 8.125Z" stroke="#1F201A" stroke-linecap="round" stroke-linejoin="round"/>
<path d="M6.24455 16.4929C7.81997 17.4047 9.67321 17.7125 11.4588 17.3588C13.2443 17.0051 14.8403 16.0141 15.9491 14.5706C17.058 13.1271 17.604 11.3295 17.4855 9.51317C17.3669 7.69679 16.5918 5.98552 15.3047 4.69842C14.0176 3.41131 12.3063 2.63622 10.49 2.51765C8.67358 2.39908 6.87607 2.94512 5.43256 4.05398C3.98904 5.16283 2.99806 6.75882 2.64436 8.54436C2.29066 10.3299 2.59839 12.1832 3.51018 13.7586L2.53283 16.6765C2.49611 16.7867 2.49078 16.9048 2.51744 17.0178C2.5441 17.1308 2.60171 17.2341 2.68379 17.3162C2.76588 17.3983 2.8692 17.4559 2.98218 17.4826C3.09516 17.5092 3.21334 17.5039 3.32346 17.4672L6.24455 16.4929Z" stroke="#1F201A" stroke-linecap="round" stroke-linejoin="round"/>
</g>
<defs>
<clipPath id="clip0_20_207">
<rect width="20" height="20" fill="white"/>
</clipPath>
</defs>
</svg>
